<svg width="24" height="30" viewBox="0 0 24 30" xmlns="http://www.w3.org/2000/svg" xmlns:xlink="http://www.w3.org/1999/xlink"><title>E9784063-C516-464B-B759-E00E75A2CD37</title><defs><linearGradient x1="50%" y1="0%" x2="50%" y2="100%" id="b"><stop stop-color="#FFF" stop-opacity=".5" offset="0%"/><stop stop-opacity=".5" offset="100%"/></linearGradient><path d="M12 30s12-7.373 12-18c0-6.627-5.373-12-12-12S0 5.373 0 12c0 10.627 12 18 12 18z" id="a"/><mask id="c" x="0" y="0" width="24" height="30" fill="#fff"><use xlink:href="#a"/></mask></defs><g fill="none" fill-rule="evenodd"><g><use fill="#28A1DF" xlink:href="#a"/><use fill="#888" xlink:href="#a"/><use fill-opacity=".4" fill="url(#b)" style="mix-blend-mode:soft-light" xlink:href="#a"/><use stroke-opacity=".2" stroke="#000" mask="url(#c)" stroke-width="4" xlink:href="#a"/></g><path d="M12.5 12.762c.83 0 1.5-.64 1.5-1.429 0-.787-.672-1.428-1.5-1.428h-2.001a.488.488 0 0 0-.499.476v6.667c0 .525-.448.952-1 .952H8V9.427C8 8.641 8.672 8 9.5 8h3c1.934 0 3.5 1.492 3.5 3.333 0 1.842-1.567 3.334-3.499 3.334H11c-1 0-1 .952-1 .952v-2.857h2.5z" fill="#FFF" fill-rule="nonzero"/></g></svg>